GRF
version=1
nRows=10
nColumns=28
inDegrees=no
endheader
time	plate1_ground_force_vx	plate1_ground_force_vy	plate1_ground_force_vz	plate1_ground_force_px	plate1_ground_force_py	plate1_ground_force_pz	plate1_ground_torque_x	plate1_ground_torque_y	plate1_ground_torque_z	plate2_ground_force_vx	plate2_ground_force_vy	plate2_ground_force_vz	plate2_ground_force_px	plate2_ground_force_py	plate2_ground_force_pz	plate2_ground_torque_x	plate2_ground_torque_y	plate2_ground_torque_z	plate3_ground_force_vx	plate3_ground_force_vy	plate3_ground_force_vz	plate3_ground_force_px	plate3_ground_force_py	plate3_ground_force_pz	plate3_ground_torque_x	plate3_ground_torque_y	plate3_ground_torque_z
      1.28000000	      0.00000000	      0.00000000	      0.00000000	      0.00000000	      0.00000000	      0.00000000	      0.00000000	      0.00000000	      0.00000000	     53.19961814	    603.41547485	    -21.26104715	      1.05962503	      0.00000000	      0.28125822	     -0.00000000	      0.91002169	      0.00000000	      0.00000000	      0.00000000	      0.00000000	      0.00000000	      0.00000000	      0.00000000	      0.00000000	      0.00000000	      0.00000000
      1.29000000	      0.00000000	      0.00000000	      0.00000000	      0.00000000	      0.00000000	      0.00000000	      0.00000000	      0.00000000	      0.00000000	     60.49716002	    617.69961956	    -21.19191199	      1.06198074	      0.00000000	      0.28142505	     -0.00000000	      0.91681479	      0.00000000	      0.00000000	      0.00000000	      0.00000000	      0.00000000	      0.00000000	      0.00000000	      0.00000000	      0.00000000	      0.00000000
      1.30000000	      0.00000000	      0.00000000	      0.00000000	      0.00000000	      0.00000000	      0.00000000	      0.00000000	      0.00000000	      0.00000000	     68.29796399	    629.61600359	    -20.86658544	      1.06410934	      0.00000000	      0.28157405	     -0.00000000	      0.90392098	      0.00000000	      0.00000000	      0.00000000	      0.00000000	      0.00000000	      0.00000000	      0.00000000	      0.00000000	      0.00000000	      0.00000000
      1.31000000	      0.00000000	      0.00000000	      0.00000000	      0.00000000	      0.00000000	      0.00000000	      0.00000000	      0.00000000	      0.00000000	     76.44442027	    638.08951332	    -20.31334406	      1.06603805	      0.00000000	      0.28172589	     -0.00000000	      0.86351360	      0.00000000	      0.00000000	      0.00000000	      0.00000000	      1.61362299	      0.00000000	      0.17731718	      0.00000000	      0.00000000	      0.00000000
      1.32000000	      0.00000000	      0.00000000	      0.00000000	      0.00000000	      0.00000000	      0.00000000	      0.00000000	      0.00000000	      0.00000000	     84.68327586	    641.94822240	    -19.55463295	      1.06780611	      0.00000000	      0.28189796	     -0.00000000	      0.78986568	      0.00000000	      0.00000000	      0.00000000	      0.00000000	      1.61362299	      0.00000000	      0.17731718	      0.00000000	      0.00000000	      0.00000000
      1.33000000	      0.00000000	      0.00000000	      0.00000000	      0.00000000	      0.00000000	      0.00000000	      0.00000000	      0.00000000	      0.00000000	     92.66762319	    639.99078427	    -18.59583278	      1.06946047	      0.00000000	      0.28210377	     -0.00000000	      0.68019400	      0.00000000	      0.00000000	      0.00000000	      0.00000000	      1.61362299	      0.00000000	      0.17731718	      0.00000000	      0.00000000	      0.00000000
      1.34000000	      0.00000000	      0.00000000	      0.00000000	      0.00000000	      0.00000000	      0.00000000	      0.00000000	      0.00000000	      0.00000000	     99.97333842	    631.07737787	    -17.41914290	      1.07104553	      0.00000000	      0.28235105	     -0.00000000	      0.53550932	     -0.00000000	     -6.83832140	     74.71780121	     -4.87973070	      1.61679709	      0.00000000	      0.17956542	     -0.00000000	     -0.14259487	     -0.00000000
      1.35000000	      0.00000000	      0.00000000	      0.00000000	      0.00000000	      0.00000000	      0.00000000	      0.00000000	      0.00000000	      0.00000000	    106.12599153	    614.23684797	    -15.98834531	      1.07259099	      0.00000000	      0.28264005	     -0.00000000	      0.36135766	     -0.00000000	    -11.70904579	    108.93501116	     -6.75502685	      1.62424375	      0.00000000	      0.18459244	     -0.00000000	     -0.16824500	     -0.00000000
      1.36000000	      0.00000000	      0.00000000	      0.00000000	      0.00000000	      0.00000000	      0.00000000	      0.00000000	      0.00000000	      0.00000000	    110.63147586	    588.78421984	    -14.26730477	      1.07410332	      0.00000000	      0.28296439	     -0.00000000	      0.16802317	     -0.00000000	    -18.56591446	    149.06734743	     -8.52060984	      1.63283543	      0.00000000	      0.18990693	     -0.00000000	     -0.18613999	     -0.00000000
      1.37000000	      0.00000000	      0.00000000	      0.00000000	      0.00000000	      0.00000000	      0.00000000	      0.00000000	      0.00000000	      0.00000000	    113.00654809	    554.44333773	    -12.24841035	      1.07556268	      0.00000000	      0.28331737	     -0.00000000	     -0.03028591	     -0.00000000	    -27.37572504	    192.79811980	     -9.77197055	      1.64202875	      0.00000000	      0.19491023	     -0.00000000	     -0.18877997	     -0.00000000
